<svg version="1.1" id="Layer_1" xmlns="http://www.w3.org/2000/svg" xmlns:xlink="http://www.w3.org/1999/xlink" x="0px" y="0px"
	 width="100%" viewBox="0 0 519 519" enable-background="new 0 0 519 519" xml:space="preserve">
<path fill="#020102" opacity="1.000000" stroke="none" 
	d="
M340.000000,520.000000 
	C226.693832,520.000000 113.887672,520.000000 1.040756,520.000000 
	C1.040756,347.068848 1.040756,174.137665 1.040756,1.103244 
	C173.889450,1.103244 346.778992,1.103244 519.834229,1.103244 
	C519.834229,173.999863 519.834229,346.999908 519.834229,520.000000 
	C460.137695,520.000000 400.318848,520.000000 340.000000,520.000000 
M481.105743,54.275707 
	C481.190338,54.324268 481.274933,54.372829 481.359528,54.421387 
	C481.240906,54.280045 481.122284,54.138702 480.903351,53.319344 
	C479.021942,51.228706 477.140533,49.138073 474.948212,46.701946 
	C473.551208,52.798260 474.577911,53.861763 481.105743,54.275707 
M118.740570,356.178864 
	C118.683914,356.582031 118.627251,356.985199 118.570595,357.388367 
	C119.414459,357.241486 120.258324,357.094604 121.778297,357.031403 
	C122.842537,357.381134 123.906784,357.730835 125.507141,358.542847 
	C127.337463,359.069763 129.167770,359.596680 131.610382,360.597504 
	C137.039215,361.175995 142.463745,362.202362 147.897629,362.254517 
	C170.006226,362.466675 192.117767,362.425690 214.228073,362.389832 
	C232.840164,362.359680 251.452042,362.207458 270.915314,362.311523 
	C277.220764,362.218567 283.547424,362.410980 289.825104,361.944336 
	C295.054108,361.555664 298.812683,358.544647 300.391846,353.414154 
	C301.674408,349.247345 300.868439,345.544861 296.713531,342.276245 
	C294.539276,341.177307 292.408875,339.250488 290.182678,339.132599 
	C283.119690,338.758698 276.020905,339.059845 268.029358,338.874237 
	C266.034760,338.792816 264.040192,338.640533 262.045593,338.640442 
	C224.074326,338.638855 186.103058,338.670013 148.131821,338.643097 
	C144.646301,338.640625 141.066574,338.734863 137.693649,338.017517 
	C128.259293,336.011108 121.216263,331.075073 119.255318,320.354523 
	C123.299255,307.206024 130.844177,301.251678 144.664139,300.625397 
	C151.145355,300.331665 157.643875,300.373291 164.134857,300.349365 
	C199.423645,300.219299 234.712524,300.116150 270.896484,300.187592 
	C283.872162,299.562408 295.718231,302.522125 306.994507,309.397644 
	C326.319397,321.180634 343.059113,318.607056 358.560699,302.197144 
	C362.845428,297.661346 367.741211,295.175537 373.906281,295.148743 
	C385.891296,295.096588 397.882568,294.878876 409.857361,295.218140 
	C412.759583,295.300323 415.985779,296.759827 418.399353,298.504211 
	C422.874176,301.738220 425.147400,301.662842 426.915710,296.349731 
	C427.839020,293.575562 427.942627,289.988983 427.014587,287.243164 
	C424.584961,280.054688 418.674988,277.155640 411.432037,277.078552 
	C398.615997,276.942078 385.796326,277.146393 372.980255,277.011230 
	C362.164032,276.897186 353.350342,280.714905 346.131195,288.900879 
	C338.365356,297.706665 329.285614,299.496979 318.673798,294.379883 
	C313.154144,291.718262 308.036957,288.214142 302.771515,285.034973 
	C292.317474,278.722992 281.041840,276.048798 267.981201,276.983124 
	C255.328033,276.892273 242.674911,276.731140 230.021713,276.724945 
	C202.039978,276.711182 174.057129,276.638672 146.076920,276.863403 
	C131.281906,276.982239 118.324738,281.673187 108.281586,294.109650 
	C96.710320,309.032227 95.616150,328.963348 105.771027,342.209717 
	C105.771027,342.209717 105.674606,342.336639 105.789886,343.020020 
	C109.353355,348.278046 113.256165,353.181213 118.740570,356.178864 
M104.312744,435.022675 
	C110.729424,440.224335 116.438385,439.102417 121.207298,430.675690 
	C126.802292,420.789246 134.916519,415.242889 146.888794,413.840546 
	C148.931503,413.694000 150.974197,413.547424 153.796265,413.611877 
	C154.856705,413.513885 155.917160,413.415924 157.869293,413.617004 
	C162.918808,413.539062 167.968307,413.461151 173.860626,413.633759 
	C175.899780,413.550812 177.938919,413.467865 180.876938,413.670471 
	C194.257385,413.567474 207.637817,413.464508 221.916809,413.614197 
	C226.603638,413.521515 231.290482,413.428864 236.872513,413.632751 
	C246.587555,413.505646 256.302612,413.378540 266.744141,413.514069 
	C267.767395,413.442902 268.790680,413.371704 270.720490,413.621185 
	C273.217072,413.669830 275.717407,413.830322 278.209595,413.747192 
	C287.553101,413.435638 296.045380,415.529663 302.999054,422.199646 
	C303.865997,423.031219 304.799255,423.793701 305.946259,424.803406 
	C307.347565,401.627686 291.561584,387.271942 267.910553,390.209290 
	C266.581787,390.133514 265.253021,389.991516 263.924255,389.991669 
	C226.612061,389.996002 189.299866,390.004059 151.987717,390.050385 
	C148.827332,390.054321 145.649933,390.168365 142.509933,390.505829 
	C123.337578,392.566193 106.871742,405.881104 101.820328,423.628510 
	C102.587212,427.213745 103.354103,430.798981 104.312744,435.022675 
M109.955635,389.022034 
	C111.320465,387.634552 113.105194,386.469391 113.977814,384.821289 
	C117.859192,377.490631 123.072403,371.578125 130.541733,367.756683 
	C130.945114,367.550293 130.878342,366.424957 130.882065,365.090607 
	C129.255325,364.724762 127.628571,364.358887 125.273468,363.954895 
	C122.053040,362.332703 118.893158,360.568481 115.582657,359.157684 
	C114.242676,358.586670 111.765724,358.081085 111.182968,358.748260 
	C106.595963,364.000061 102.342415,369.543091 97.376595,375.443115 
	C96.896400,377.177094 95.632629,379.164307 96.094589,380.593842 
	C97.146446,383.848846 98.369858,387.689758 100.833458,389.625214 
	C102.519096,390.949493 106.412399,389.463654 109.955635,389.022034 
M101.742363,260.920227 
	C105.209755,269.793915 113.170189,270.979584 119.372749,263.130859 
	C126.680275,253.883987 136.173218,249.976410 147.637070,249.977066 
	C152.295883,249.977325 156.954712,249.949966 161.613525,249.939316 
	C197.716217,249.856781 233.818909,249.775238 270.849915,249.879333 
	C284.632111,248.792435 297.154449,252.173050 308.803925,259.710175 
	C315.589966,264.100677 323.257507,266.265350 331.546844,266.227386 
	C359.709290,266.098419 387.872650,266.169067 416.035583,266.123444 
	C417.684967,266.120758 419.383148,265.953491 420.973419,265.537231 
	C425.436798,264.369019 428.275635,260.617920 428.047028,256.462677 
	C427.820892,252.351852 424.504913,248.728683 420.114197,248.047775 
	C418.317841,247.769226 416.458618,247.846649 414.627991,247.846176 
	C394.129700,247.840942 373.604309,247.200592 353.141174,248.052155 
	C334.693665,248.819824 318.088654,245.721024 302.763428,234.530014 
	C293.072357,227.453262 281.147522,225.418015 268.192139,226.539230 
	C265.876099,226.366104 263.560303,226.046326 261.243988,226.042664 
	C239.418686,226.008179 217.593277,226.015656 195.767929,226.035431 
	C179.274261,226.050385 162.773285,225.805359 146.288925,226.214493 
	C127.938820,226.669952 112.221611,232.678986 103.205849,250.025620 
	C101.713669,252.896622 102.157280,256.773743 101.742363,260.920227 
M410.300995,413.029510 
	C420.185760,418.224854 421.142517,418.028687 425.846161,409.841980 
	C432.066650,399.015106 432.007233,398.457977 421.011810,392.327332 
	C418.007324,390.652130 417.301208,388.864044 417.836945,385.541840 
	C418.491364,381.483643 419.141602,377.070770 418.207306,373.193542 
	C416.813599,367.410034 418.104858,363.920776 423.703796,362.000641 
	C424.632843,361.682098 425.496582,361.112274 426.318481,360.552795 
	C429.854675,358.145630 431.096405,355.086029 428.799286,351.144623 
	C427.039459,348.125122 425.620728,344.767700 423.290222,342.269714 
	C421.781372,340.652405 417.779846,338.873505 416.814667,339.626678 
	C408.536957,346.086121 402.420959,341.776886 394.639801,337.792969 
	C387.523804,334.149628 384.648193,330.616150 385.642822,322.979309 
	C386.159332,319.013672 383.593628,316.858643 379.514709,316.824890 
	C377.848206,316.811127 376.181671,316.787842 374.515167,316.788971 
	C362.576691,316.797150 362.443695,316.800720 362.617706,328.679077 
	C362.670380,332.275208 361.378235,333.895142 358.101105,335.252441 
	C353.540955,337.141266 349.175720,339.638336 345.030670,342.340759 
	C342.473816,344.007751 340.460358,344.389893 337.730591,342.891846 
	C327.753113,337.416382 327.004669,337.691620 321.318268,347.736664 
	C320.745453,348.748535 320.224152,349.794189 319.746765,350.854736 
	C317.580292,355.667786 318.356323,358.242767 322.794861,360.875824 
	C324.368073,361.809113 325.940582,362.783325 327.617126,363.494232 
	C330.844208,364.862671 331.276459,367.129486 330.748932,370.362122 
	C330.137909,374.106415 329.242584,378.229218 330.197479,381.714600 
	C332.109711,388.694397 329.239899,391.838318 323.344025,394.597076 
	C317.974884,397.109436 317.448578,400.411652 320.181000,405.719360 
	C320.789856,406.902100 321.462585,408.053650 322.142639,409.197754 
	C327.321838,417.910889 328.427277,418.369293 337.372833,413.181030 
	C341.556580,410.754517 344.847534,410.356537 348.377655,414.081177 
	C349.695099,415.471130 351.635529,416.639069 353.490143,417.086334 
	C360.681915,418.820923 364.337738,422.712524 362.674866,430.440216 
	C362.542969,431.053101 362.658997,431.833069 362.934387,432.402649 
	C366.561340,439.903442 373.425446,436.030121 378.897797,436.704346 
	C382.615540,437.162445 385.312592,435.056976 385.648956,430.965546 
	C385.812286,428.979095 385.870697,426.949127 385.654205,424.974213 
	C385.302521,421.766510 386.799866,420.249237 389.625610,419.016785 
	C393.409332,417.366547 397.405884,415.673798 400.458069,413.018738 
	C403.834534,410.081573 406.464294,410.329071 410.300995,413.029510 
M107.205284,169.499985 
	C107.202820,177.326767 107.081062,185.155869 107.231827,192.979691 
	C107.379135,200.624451 111.386803,204.897873 118.340271,204.914932 
	C140.988785,204.970520 163.637589,204.974258 186.286102,204.924179 
	C193.278961,204.908722 197.789536,200.603363 197.611008,194.406311 
	C197.432449,188.208282 192.838409,184.081726 185.942535,184.082840 
	C168.623093,184.085663 151.303665,184.146042 133.984222,184.182297 
	C132.199188,184.186035 130.414169,184.182785 128.420380,184.182785 
	C128.420380,175.106979 128.420380,166.544495 128.420380,157.743576 
	C142.341782,157.743576 155.972366,157.805786 169.602005,157.719116 
	C177.195297,157.670822 181.412292,153.811035 181.456985,147.208664 
	C181.501266,140.663864 177.270859,136.781143 169.638382,136.727646 
	C157.648941,136.643616 145.658249,136.740891 133.668076,136.760422 
	C131.915741,136.763275 130.163406,136.760803 128.392578,136.760803 
	C128.392578,127.721016 128.392578,119.453346 128.392578,110.678726 
	C130.425385,110.678726 132.220978,110.680016 134.016586,110.678528 
	C151.335602,110.664169 168.654678,110.616600 185.973572,110.654625 
	C191.154190,110.666000 195.151581,108.854240 196.925537,103.756706 
	C199.416367,96.599167 194.500732,89.920959 186.650726,89.891296 
	C165.168182,89.810127 143.685135,89.862312 122.202286,89.859444 
	C110.451050,89.857872 107.227249,93.094849 107.215157,105.050484 
	C107.193771,126.200294 107.208687,147.350143 107.205284,169.499985 
M391.620300,191.139252 
	C380.326172,200.273651 365.686768,199.501495 355.565735,189.202057 
	C353.583130,187.184494 351.836578,184.923080 349.766388,183.006042 
	C346.205994,179.709030 340.856415,179.370026 336.825287,181.955841 
	C333.006653,184.405350 331.618500,189.018082 333.497070,193.882278 
	C334.266022,195.873367 335.376007,197.789108 336.621582,199.531265 
	C353.822021,223.589539 394.166351,223.791153 411.591644,199.941116 
	C422.383453,185.170319 421.069611,165.521851 408.371094,154.096603 
	C405.881775,151.856857 402.893616,150.171555 400.062073,148.178818 
	C422.141541,134.526459 416.365692,102.649948 394.697510,92.618584 
	C377.676025,84.738403 360.876007,85.839592 345.591217,96.972588 
	C340.927582,100.369446 337.167053,105.474342 334.112030,110.480003 
	C331.058380,115.483475 333.032410,121.499580 337.268768,124.185135 
	C341.772614,127.040268 347.669037,125.865578 351.585815,121.348412 
	C353.545868,119.087929 355.326172,116.621330 357.537994,114.638634 
	C364.792358,108.135757 373.346069,107.145378 382.305573,109.901482 
	C389.291534,112.050476 393.617584,118.618103 393.023773,125.022629 
	C392.436615,131.356003 387.360809,136.518280 380.230927,137.897430 
	C377.947479,138.339142 375.598816,138.438339 373.309113,138.854431 
	C367.927856,139.832397 364.766296,143.634583 364.822296,148.910950 
	C364.872620,153.656403 368.338318,157.805038 373.211914,158.696884 
	C375.165039,159.054306 377.196716,158.958328 379.182831,159.163834 
	C387.008301,159.973572 393.388702,163.290329 396.413330,170.836685 
	C399.350830,178.165741 397.491974,184.881973 391.620300,191.139252 
M274.383545,147.028336 
	C273.053040,141.103882 269.632080,137.028381 263.508789,136.140747 
	C257.978149,135.339020 253.301178,137.354141 250.251740,142.234344 
	C247.307877,146.945633 247.846146,152.898483 251.389343,157.160400 
	C254.758148,161.212524 260.691223,162.776642 265.934692,160.994934 
	C271.472809,159.113113 274.173553,154.947052 274.383545,147.028336 
z"/>
<path fill="#FAFAFA" opacity="1.000000" stroke="none" 
	d="
M409.948792,412.868347 
	C406.464294,410.329071 403.834534,410.081573 400.458069,413.018738 
	C397.405884,415.673798 393.409332,417.366547 389.625610,419.016785 
	C386.799866,420.249237 385.302521,421.766510 385.654205,424.974213 
	C385.870697,426.949127 385.812286,428.979095 385.648956,430.965546 
	C385.312592,435.056976 382.615540,437.162445 378.897797,436.704346 
	C373.425446,436.030121 366.561340,439.903442 362.934387,432.402649 
	C362.658997,431.833069 362.542969,431.053101 362.674866,430.440216 
	C364.337738,422.712524 360.681915,418.820923 353.490143,417.086334 
	C351.635529,416.639069 349.695099,415.471130 348.377655,414.081177 
	C344.847534,410.356537 341.556580,410.754517 337.372833,413.181030 
	C328.427277,418.369293 327.321838,417.910889 322.142639,409.197754 
	C321.462585,408.053650 320.789856,406.902100 320.181000,405.719360 
	C317.448578,400.411652 317.974884,397.109436 323.344025,394.597076 
	C329.239899,391.838318 332.109711,388.694397 330.197479,381.714600 
	C329.242584,378.229218 330.137909,374.106415 330.748932,370.362122 
	C331.276459,367.129486 330.844208,364.862671 327.617126,363.494232 
	C325.940582,362.783325 324.368073,361.809113 322.794861,360.875824 
	C318.356323,358.242767 317.580292,355.667786 319.746765,350.854736 
	C320.224152,349.794189 320.745453,348.748535 321.318268,347.736664 
	C327.004669,337.691620 327.753113,337.416382 337.730591,342.891846 
	C340.460358,344.389893 342.473816,344.007751 345.030670,342.340759 
	C349.175720,339.638336 353.540955,337.141266 358.101105,335.252441 
	C361.378235,333.895142 362.670380,332.275208 362.617706,328.679077 
	C362.443695,316.800720 362.576691,316.797150 374.515167,316.788971 
	C376.181671,316.787842 377.848206,316.811127 379.514709,316.824890 
	C383.593628,316.858643 386.159332,319.013672 385.642822,322.979309 
	C384.648193,330.616150 387.523804,334.149628 394.639801,337.792969 
	C402.420959,341.776886 408.536957,346.086121 416.814667,339.626678 
	C417.779846,338.873505 421.781372,340.652405 423.290222,342.269714 
	C425.620728,344.767700 427.039459,348.125122 428.799286,351.144623 
	C431.096405,355.086029 429.854675,358.145630 426.318481,360.552795 
	C425.496582,361.112274 424.632843,361.682098 423.703796,362.000641 
	C418.104858,363.920776 416.813599,367.410034 418.207306,373.193542 
	C419.141602,377.070770 418.491364,381.483643 417.836945,385.541840 
	C417.301208,388.864044 418.007324,390.652130 421.011810,392.327332 
	C432.007233,398.457977 432.066650,399.015106 425.846161,409.841980 
	C421.142517,418.028687 420.185760,418.224854 409.948792,412.868347 
M393.073730,360.469025 
	C383.995728,351.133514 372.308838,348.999329 361.784576,354.755127 
	C351.988983,360.112457 346.666199,372.046082 349.541351,382.850098 
	C352.339600,393.365173 359.463501,399.625671 369.965027,401.708710 
	C379.628235,403.625488 390.473572,398.410156 395.688904,389.952423 
	C401.005493,381.330475 400.189270,370.098511 393.073730,360.469025 
z"/>
<path fill="#F8F9F9" opacity="1.000000" stroke="none" 
	d="
M107.206848,168.999969 
	C107.208687,147.350143 107.193771,126.200294 107.215157,105.050484 
	C107.227249,93.094849 110.451050,89.857872 122.202286,89.859444 
	C143.685135,89.862312 165.168182,89.810127 186.650726,89.891296 
	C194.500732,89.920959 199.416367,96.599167 196.925537,103.756706 
	C195.151581,108.854240 191.154190,110.666000 185.973572,110.654625 
	C168.654678,110.616600 151.335602,110.664169 134.016586,110.678528 
	C132.220978,110.680016 130.425385,110.678726 128.392578,110.678726 
	C128.392578,119.453346 128.392578,127.721016 128.392578,136.760803 
	C130.163406,136.760803 131.915741,136.763275 133.668076,136.760422 
	C145.658249,136.740891 157.648941,136.643616 169.638382,136.727646 
	C177.270859,136.781143 181.501266,140.663864 181.456985,147.208664 
	C181.412292,153.811035 177.195297,157.670822 169.602005,157.719116 
	C155.972366,157.805786 142.341782,157.743576 128.420380,157.743576 
	C128.420380,166.544495 128.420380,175.106979 128.420380,184.182785 
	C130.414169,184.182785 132.199188,184.186035 133.984222,184.182297 
	C151.303665,184.146042 168.623093,184.085663 185.942535,184.082840 
	C192.838409,184.081726 197.432449,188.208282 197.611008,194.406311 
	C197.789536,200.603363 193.278961,204.908722 186.286102,204.924179 
	C163.637589,204.974258 140.988785,204.970520 118.340271,204.914932 
	C111.386803,204.897873 107.379135,200.624451 107.231827,192.979691 
	C107.081062,185.155869 107.202820,177.326767 107.206848,168.999969 
z"/>
<path fill="#F9F9F9" opacity="1.000000" stroke="none" 
	d="
M391.887238,190.891754 
	C397.491974,184.881973 399.350830,178.165741 396.413330,170.836685 
	C393.388702,163.290329 387.008301,159.973572 379.182831,159.163834 
	C377.196716,158.958328 375.165039,159.054306 373.211914,158.696884 
	C368.338318,157.805038 364.872620,153.656403 364.822296,148.910950 
	C364.766296,143.634583 367.927856,139.832397 373.309113,138.854431 
	C375.598816,138.438339 377.947479,138.339142 380.230927,137.897430 
	C387.360809,136.518280 392.436615,131.356003 393.023773,125.022629 
	C393.617584,118.618103 389.291534,112.050476 382.305573,109.901482 
	C373.346069,107.145378 364.792358,108.135757 357.537994,114.638634 
	C355.326172,116.621330 353.545868,119.087929 351.585815,121.348412 
	C347.669037,125.865578 341.772614,127.040268 337.268768,124.185135 
	C333.032410,121.499580 331.058380,115.483475 334.112030,110.480003 
	C337.167053,105.474342 340.927582,100.369446 345.591217,96.972588 
	C360.876007,85.839592 377.676025,84.738403 394.697510,92.618584 
	C416.365692,102.649948 422.141541,134.526459 400.062073,148.178818 
	C402.893616,150.171555 405.881775,151.856857 408.371094,154.096603 
	C421.069611,165.521851 422.383453,185.170319 411.591644,199.941116 
	C394.166351,223.791153 353.822021,223.589539 336.621582,199.531265 
	C335.376007,197.789108 334.266022,195.873367 333.497070,193.882278 
	C331.618500,189.018082 333.006653,184.405350 336.825287,181.955841 
	C340.856415,179.370026 346.205994,179.709030 349.766388,183.006042 
	C351.836578,184.923080 353.583130,187.184494 355.565735,189.202057 
	C365.686768,199.501495 380.326172,200.273651 391.887238,190.891754 
z"/>
<path fill="#FCFDFC" opacity="1.000000" stroke="none" 
	d="
M118.953400,321.021332 
	C121.216263,331.075073 128.259293,336.011108 137.693649,338.017517 
	C141.066574,338.734863 144.646301,338.640625 148.131821,338.643097 
	C186.103058,338.670013 224.074326,338.638855 262.045593,338.640442 
	C264.040192,338.640533 266.034760,338.792816 268.507324,339.323120 
	C269.584351,341.185059 270.183411,342.598083 270.779480,344.419189 
	C270.420441,347.508118 270.064392,350.188965 269.337433,352.954834 
	C263.998657,353.669769 259.030792,354.299652 253.595901,354.917816 
	C218.059555,354.910095 182.990265,354.914124 147.552429,354.744385 
	C139.169586,353.027954 131.155289,351.485321 122.950394,349.661682 
	C118.190674,345.112518 112.435326,341.569580 109.292908,336.429291 
	C102.179123,324.792755 101.569572,312.124939 107.196358,299.404968 
	C107.975822,297.642914 108.350449,295.701721 108.912498,293.843475 
	C118.324738,281.673187 131.281906,276.982239 146.076920,276.863403 
	C174.057129,276.638672 202.039978,276.711182 230.021713,276.724945 
	C242.674911,276.731140 255.328033,276.892273 268.507996,277.513000 
	C269.266876,282.308655 269.498993,286.574432 269.407593,290.918915 
	C268.035095,291.391113 266.986115,291.784576 265.552246,292.139221 
	C264.139343,292.149017 263.111359,292.197632 261.694336,292.220459 
	C259.220947,292.446808 257.136566,292.698975 254.578049,292.941284 
	C216.080795,292.967377 178.057724,293.003357 139.633636,293.026550 
	C126.275185,294.809357 116.519547,305.329163 117.068787,317.132599 
	C117.130333,318.455200 118.298447,319.726318 118.953400,321.021332 
z"/>
<path fill="#979FAB" opacity="1.000000" stroke="none" 
	d="
M269.731110,290.840179 
	C269.498993,286.574432 269.266876,282.308655 268.952026,277.647156 
	C281.041840,276.048798 292.317474,278.722992 302.771515,285.034973 
	C308.036957,288.214142 313.154144,291.718262 318.673798,294.379883 
	C329.285614,299.496979 338.365356,297.706665 346.131195,288.900879 
	C353.350342,280.714905 362.164032,276.897186 372.980255,277.011230 
	C385.796326,277.146393 398.615997,276.942078 411.432037,277.078552 
	C418.674988,277.155640 424.584961,280.054688 427.014587,287.243164 
	C427.942627,289.988983 427.839020,293.575562 426.915710,296.349731 
	C425.147400,301.662842 422.874176,301.738220 418.399353,298.504211 
	C415.985779,296.759827 412.759583,295.300323 409.857361,295.218140 
	C397.882568,294.878876 385.891296,295.096588 373.906281,295.148743 
	C367.741211,295.175537 362.845428,297.661346 358.560699,302.197144 
	C343.059113,318.607056 326.319397,321.180634 306.994507,309.397644 
	C295.718231,302.522125 283.872162,299.562408 270.479004,299.642181 
	C269.951416,296.344574 269.841278,293.592377 269.731110,290.840179 
z"/>
<path fill="#969FAB" opacity="1.000000" stroke="none" 
	d="
M268.968231,226.833710 
	C281.147522,225.418015 293.072357,227.453262 302.763428,234.530014 
	C318.088654,245.721024 334.693665,248.819824 353.141174,248.052155 
	C373.604309,247.200592 394.129700,247.840942 414.627991,247.846176 
	C416.458618,247.846649 418.317841,247.769226 420.114197,248.047775 
	C424.504913,248.728683 427.820892,252.351852 428.047028,256.462677 
	C428.275635,260.617920 425.436798,264.369019 420.973419,265.537231 
	C419.383148,265.953491 417.684967,266.120758 416.035583,266.123444 
	C387.872650,266.169067 359.709290,266.098419 331.546844,266.227386 
	C323.257507,266.265350 315.589966,264.100677 308.803925,259.710175 
	C297.154449,252.173050 284.632111,248.792435 270.426453,249.351013 
	C269.928162,245.827835 269.853333,242.832962 269.829956,239.444855 
	C269.577026,234.978989 269.272644,230.906357 268.968231,226.833710 
z"/>
<path fill="#F9FAFA" opacity="1.000000" stroke="none" 
	d="
M102.227859,422.980408 
	C106.871742,405.881104 123.337578,392.566193 142.509933,390.505829 
	C145.649933,390.168365 148.827332,390.054321 151.987717,390.050385 
	C189.299866,390.004059 226.612061,389.996002 263.924255,389.991669 
	C265.253021,389.991516 266.581787,390.133514 268.424011,390.685059 
	C269.189941,395.729889 269.442444,400.298920 269.350342,404.929871 
	C267.662628,405.339050 266.319519,405.686340 264.510620,406.012939 
	C225.373672,406.008331 186.702545,406.024414 147.689697,406.022705 
	C146.892365,406.024109 146.436768,406.043274 145.614532,406.046387 
	C143.840744,406.374786 142.433578,406.719208 140.639496,407.045654 
	C137.072906,408.295349 133.820541,409.408356 130.728287,410.862030 
	C123.620071,414.203491 119.972206,420.782837 116.027100,427.041504 
	C113.816635,430.548309 111.119247,432.384583 106.869827,429.673828 
	C105.229912,427.234070 103.728882,425.107239 102.227859,422.980408 
z"/>
<path fill="#F9FBFA" opacity="1.000000" stroke="none" 
	d="
M268.580200,226.686462 
	C269.272644,230.906357 269.577026,234.978989 269.472107,239.552963 
	C266.403015,240.710846 263.744995,241.930939 261.083221,241.939209 
	C222.466507,242.059219 183.848145,241.850662 145.232849,242.114532 
	C133.639557,242.193741 123.600471,246.400787 116.670967,256.477386 
	C111.763771,263.613220 109.617599,263.580322 103.528931,256.999146 
	C102.933350,258.040466 102.319824,259.113190 101.706299,260.185883 
	C102.157280,256.773743 101.713669,252.896622 103.205849,250.025620 
	C112.221611,232.678986 127.938820,226.669952 146.288925,226.214493 
	C162.773285,225.805359 179.274261,226.050385 195.767929,226.035431 
	C217.593277,226.015656 239.418686,226.008179 261.243988,226.042664 
	C263.560303,226.046326 265.876099,226.366104 268.580200,226.686462 
z"/>
<path fill="#C5CED9" opacity="1.000000" stroke="none" 
	d="
M101.724335,260.553040 
	C102.319824,259.113190 102.933350,258.040466 103.528931,256.999146 
	C109.617599,263.580322 111.763771,263.613220 116.670967,256.477386 
	C123.600471,246.400787 133.639557,242.193741 145.232849,242.114532 
	C183.848145,241.850662 222.466507,242.059219 261.083221,241.939209 
	C263.744995,241.930939 266.403015,240.710846 269.420654,239.946198 
	C269.853333,242.832962 269.928162,245.827835 269.962280,249.258057 
	C233.818909,249.775238 197.716217,249.856781 161.613525,249.939316 
	C156.954712,249.949966 152.295883,249.977325 147.637070,249.977066 
	C136.173218,249.976410 126.680275,253.883987 119.372749,263.130859 
	C113.170189,270.979584 105.209755,269.793915 101.724335,260.553040 
z"/>
<path fill="#CBD5E0" opacity="1.000000" stroke="none" 
	d="
M269.407593,290.918915 
	C269.841278,293.592377 269.951416,296.344574 270.031464,299.550262 
	C234.712524,300.116150 199.423645,300.219299 164.134857,300.349365 
	C157.643875,300.373291 151.145355,300.331665 144.664139,300.625397 
	C130.844177,301.251678 123.299255,307.206024 119.104355,320.687927 
	C118.298447,319.726318 117.130333,318.455200 117.068787,317.132599 
	C116.519547,305.329163 126.275185,294.809357 139.928986,293.314026 
	C141.437149,293.742249 142.248932,293.981689 143.060837,293.982147 
	C179.003235,294.002350 214.945679,294.013275 250.888016,293.958771 
	C252.276581,293.956665 253.664169,293.301849 255.052216,292.951172 
	C257.136566,292.698975 259.220947,292.446808 261.750793,292.534363 
	C263.443237,292.642059 264.690186,292.410065 265.937134,292.178040 
	C266.986115,291.784576 268.035095,291.391113 269.407593,290.918915 
z"/>
<path fill="#C8D1DE" opacity="1.000000" stroke="none" 
	d="
M254.062943,354.929565 
	C259.030792,354.299652 263.998657,353.669769 269.441742,353.409760 
	C269.965973,356.556183 270.014984,359.332733 270.064026,362.109253 
	C251.452042,362.207458 232.840164,362.359680 214.228073,362.389832 
	C192.117767,362.425690 170.006226,362.466675 147.897629,362.254517 
	C142.463745,362.202362 137.039215,361.175995 131.249451,360.004639 
	C128.916031,358.968018 126.943527,358.524261 124.971031,358.080536 
	C123.906784,357.730835 122.842537,357.381134 121.393463,356.805786 
	C121.008636,356.580170 120.914627,356.212738 120.893639,355.855286 
	C118.467010,353.604828 115.850983,351.917542 113.728668,349.747437 
	C112.279953,348.266083 111.520599,346.110596 110.068352,343.588409 
	C115.272270,346.117920 119.206627,348.030304 123.140976,349.942688 
	C131.155289,351.485321 139.169586,353.027954 147.853180,355.052124 
	C149.328064,355.688568 150.133545,355.978302 150.939240,355.978882 
	C184.094116,356.002777 217.249039,356.012115 250.403839,355.956726 
	C251.624115,355.954681 252.843277,355.287048 254.062943,354.929565 
z"/>
<path fill="#C7D2E1" opacity="1.000000" stroke="none" 
	d="
M145.981155,406.062439 
	C146.436768,406.043274 146.892365,406.024109 147.985779,406.309784 
	C149.268372,406.741150 149.913116,406.978058 150.557999,406.978424 
	C187.466690,406.999146 224.375427,407.009674 261.284058,406.962555 
	C262.515259,406.960999 263.745636,406.356873 264.976410,406.033630 
	C266.319519,405.686340 267.662628,405.339050 269.477478,405.366089 
	C269.953308,407.830322 269.957397,409.920197 269.633392,412.009338 
	C268.209412,412.422852 267.113525,412.837128 266.017639,413.251404 
	C256.302612,413.378540 246.587555,413.505646 236.252502,413.158417 
	C230.761093,412.909882 225.889679,413.135712 221.018265,413.361511 
	C207.637817,413.464508 194.257385,413.567474 180.285767,413.220032 
	C177.469009,412.974121 175.243408,413.178680 173.017822,413.383240 
	C167.968307,413.461151 162.918808,413.539062 157.308105,413.200867 
	C155.503586,412.990112 154.260254,413.195496 153.016907,413.400879 
	C150.974197,413.547424 148.931503,413.694000 146.385941,413.487213 
	C143.733521,412.570129 141.583939,412.006378 139.278076,411.401611 
	C140.349747,410.065247 141.176376,409.034454 142.375214,408.002014 
	C143.825333,407.354401 144.903244,406.708435 145.981155,406.062439 
z"/>
<path fill="#9199A3" opacity="1.000000" stroke="none" 
	d="
M269.961487,412.010071 
	C269.957397,409.920197 269.953308,407.830322 269.822083,405.304199 
	C269.442444,400.298920 269.189941,395.729889 268.866638,390.802643 
	C291.561584,387.271942 307.347565,401.627686 305.946259,424.803406 
	C304.799255,423.793701 303.865997,423.031219 302.999054,422.199646 
	C296.045380,415.529663 287.553101,413.435638 278.209595,413.747192 
	C275.717407,413.830322 273.217072,413.669830 270.265503,413.240112 
	C269.978699,412.597015 270.029022,412.314026 269.961487,412.010071 
z"/>
<path fill="#969FAA" opacity="1.000000" stroke="none" 
	d="
M131.030426,365.727417 
	C130.878342,366.424957 130.945114,367.550293 130.541733,367.756683 
	C123.072403,371.578125 117.859192,377.490631 113.977814,384.821289 
	C113.105194,386.469391 111.320465,387.634552 109.291946,388.967834 
	C105.717888,386.718079 102.372238,384.895691 100.054459,382.192139 
	C98.577187,380.468994 98.623192,377.439972 97.986191,374.996460 
	C102.342415,369.543091 106.595963,364.000061 111.182968,358.748260 
	C111.765724,358.081085 114.242676,358.586670 115.582657,359.157684 
	C118.893158,360.568481 122.053040,362.332703 125.870911,364.218689 
	C127.989037,364.897461 129.509735,365.312439 131.030426,365.727417 
z"/>
<path fill="#F6F6F6" opacity="1.000000" stroke="none" 
	d="
M274.437469,147.412048 
	C274.173553,154.947052 271.472809,159.113113 265.934692,160.994934 
	C260.691223,162.776642 254.758148,161.212524 251.389343,157.160400 
	C247.846146,152.898483 247.307877,146.945633 250.251740,142.234344 
	C253.301178,137.354141 257.978149,135.339020 263.508789,136.140747 
	C269.632080,137.028381 273.053040,141.103882 274.437469,147.412048 
z"/>
<path fill="#9CA4B0" opacity="1.000000" stroke="none" 
	d="
M270.782440,344.011108 
	C270.183411,342.598083 269.584351,341.185059 268.960632,339.436035 
	C276.020905,339.059845 283.119690,338.758698 290.182678,339.132599 
	C292.408875,339.250488 294.539276,341.177307 296.863892,342.998779 
	C296.605347,350.850433 293.438782,353.943542 286.445618,353.995148 
	C282.792969,354.022095 279.136719,353.897919 275.488190,354.021881 
	C272.930450,354.108826 271.982727,353.114136 271.921234,350.541382 
	C271.869019,348.356781 271.186218,346.187286 270.782440,344.011108 
z"/>
<path fill="#C7CFD7" opacity="1.000000" stroke="none" 
	d="
M142.002991,408.003632 
	C141.176376,409.034454 140.349747,410.065247 139.278076,411.401611 
	C141.583939,412.006378 143.733521,412.570129 145.947205,413.433350 
	C134.916519,415.242889 126.802292,420.789246 121.207298,430.675690 
	C116.438385,439.102417 110.729424,440.224335 104.168701,434.320557 
	C105.019356,432.407867 106.014038,431.197296 107.008713,429.986725 
	C111.119247,432.384583 113.816635,430.548309 116.027100,427.041504 
	C119.972206,420.782837 123.620071,414.203491 130.728287,410.862030 
	C133.820541,409.408356 137.072906,408.295349 140.747513,407.252075 
	C141.441391,407.730957 141.694901,407.906677 142.002991,408.003632 
z"/>
<path fill="#CACFD7" opacity="1.000000" stroke="none" 
	d="
M122.950394,349.661652 
	C119.206627,348.030304 115.272270,346.117920 110.068352,343.588409 
	C111.520599,346.110596 112.279953,348.266083 113.728668,349.747437 
	C115.850983,351.917542 118.467010,353.604828 120.611145,355.822632 
	C119.984024,356.063293 119.618416,355.979095 119.252808,355.894928 
	C113.256165,353.181213 109.353355,348.278046 106.115479,342.583862 
	C107.224983,341.672424 108.008911,341.197113 108.792831,340.721802 
	C107.946449,339.815002 107.100082,338.908234 105.636436,337.340118 
	C105.636436,339.791565 105.636436,341.042175 105.636436,342.292755 
	C95.616150,328.963348 96.710320,309.032227 108.597046,293.976562 
	C108.350449,295.701721 107.975822,297.642914 107.196358,299.404968 
	C101.569572,312.124939 102.179123,324.792755 109.292908,336.429291 
	C112.435326,341.569580 118.190674,345.112518 122.950394,349.661652 
z"/>
<path fill="#888F9C" opacity="1.000000" stroke="none" 
	d="
M270.779480,344.419189 
	C271.186218,346.187286 271.869019,348.356781 271.921234,350.541382 
	C271.982727,353.114136 272.930450,354.108826 275.488190,354.021881 
	C279.136719,353.897919 282.792969,354.022095 286.445618,353.995148 
	C293.438782,353.943542 296.605347,350.850433 297.031555,343.311615 
	C300.868439,345.544861 301.674408,349.247345 300.391846,353.414154 
	C298.812683,358.544647 295.054108,361.555664 289.825104,361.944336 
	C283.547424,362.410980 277.220764,362.218567 270.489655,362.210388 
	C270.014984,359.332733 269.965973,356.556183 269.812653,353.324768 
	C270.064392,350.188965 270.420441,347.508118 270.779480,344.419189 
z"/>
<path fill="#7F848C" opacity="1.000000" stroke="none" 
	d="
M97.681396,375.219788 
	C98.623192,377.439972 98.577187,380.468994 100.054459,382.192139 
	C102.372238,384.895691 105.717888,386.718079 108.973495,389.073853 
	C106.412399,389.463654 102.519096,390.949493 100.833458,389.625214 
	C98.369858,387.689758 97.146446,383.848846 96.094589,380.593842 
	C95.632629,379.164307 96.896400,377.177094 97.681396,375.219788 
z"/>
<path fill="#D5DDE8" opacity="1.000000" stroke="none" 
	d="
M106.869827,429.673828 
	C106.014038,431.197296 105.019356,432.407867 104.072830,434.001312 
	C103.354103,430.798981 102.587212,427.213745 102.024094,423.304443 
	C103.728882,425.107239 105.229912,427.234070 106.869827,429.673828 
z"/>
<path fill="#D5DDE8" opacity="1.000000" stroke="none" 
	d="
M221.467529,413.487854 
	C225.889679,413.135712 230.761093,412.909882 235.804901,413.010132 
	C231.290482,413.428864 226.603638,413.521515 221.467529,413.487854 
z"/>
<path fill="#080809" opacity="1.000000" stroke="none" 
	d="
M480.997498,54.003403 
	C474.577911,53.861763 473.551208,52.798260 474.948212,46.701946 
	C477.140533,49.138073 479.021942,51.228706 480.951660,53.659672 
	C481.000000,54.000000 480.997498,54.003403 480.997498,54.003403 
z"/>
<path fill="#D5DDE8" opacity="1.000000" stroke="none" 
	d="
M173.439224,413.508484 
	C175.243408,413.178680 177.469009,412.974121 179.836334,413.077271 
	C177.938919,413.467865 175.899780,413.550812 173.439224,413.508484 
z"/>
<path fill="#CACFD7" opacity="1.000000" stroke="none" 
	d="
M125.239090,358.311707 
	C126.943527,358.524261 128.916031,358.968018 130.943298,359.767700 
	C129.167770,359.596680 127.337463,359.069763 125.239090,358.311707 
z"/>
<path fill="#111014" opacity="1.000000" stroke="none" 
	d="
M130.956238,365.408997 
	C129.509735,365.312439 127.989037,364.897461 126.235085,364.237793 
	C127.628571,364.358887 129.255325,364.724762 130.956238,365.408997 
z"/>
<path fill="#D5DDE8" opacity="1.000000" stroke="none" 
	d="
M153.406586,413.506378 
	C154.260254,413.195496 155.503586,412.990112 156.862274,413.051331 
	C155.917160,413.415924 154.856705,413.513885 153.406586,413.506378 
z"/>
<path fill="#D5DDE8" opacity="1.000000" stroke="none" 
	d="
M269.633392,412.009338 
	C270.029022,412.314026 269.978699,412.597015 269.812195,413.079803 
	C268.790680,413.371704 267.767395,413.442902 266.380890,413.382751 
	C267.113525,412.837128 268.209412,412.422852 269.633392,412.009338 
z"/>
<path fill="#111014" opacity="1.000000" stroke="none" 
	d="
M118.996689,356.036896 
	C119.618416,355.979095 119.984024,356.063293 120.632126,356.180115 
	C120.914627,356.212738 121.008636,356.580170 121.055412,356.763947 
	C120.258324,357.094604 119.414459,357.241486 118.570587,357.388367 
	C118.627251,356.985199 118.683914,356.582031 118.996689,356.036896 
z"/>
<path fill="#080809" opacity="1.000000" stroke="none" 
	d="
M481.001831,53.998680 
	C481.122284,54.138702 481.240906,54.280045 481.359528,54.421387 
	C481.274933,54.372829 481.190338,54.324268 481.051636,54.139557 
	C480.997498,54.003403 481.000000,54.000000 481.001831,53.998680 
z"/>
<path fill="#080809" opacity="1.000000" stroke="none" 
	d="
M393.328735,360.726257 
	C400.189270,370.098511 401.005493,381.330475 395.688904,389.952423 
	C390.473572,398.410156 379.628235,403.625488 369.965027,401.708710 
	C359.463501,399.625671 352.339600,393.365173 349.541351,382.850098 
	C346.666199,372.046082 351.988983,360.112457 361.784576,354.755127 
	C372.308838,348.999329 383.995728,351.133514 393.328735,360.726257 
M387.008301,380.800781 
	C388.094940,372.445068 385.415192,366.922119 379.076263,364.453064 
	C373.304382,362.204895 366.237518,364.484192 362.822601,369.695404 
	C358.874237,375.720673 360.751801,384.310699 366.837982,388.066254 
	C374.109924,392.553436 382.302155,389.900330 387.008301,380.800781 
z"/>
<path fill="#C1C9D6" opacity="1.000000" stroke="none" 
	d="
M253.595901,354.917847 
	C252.843277,355.287048 251.624115,355.954681 250.403839,355.956726 
	C217.249039,356.012115 184.094116,356.002777 150.939240,355.978882 
	C150.133545,355.978302 149.328064,355.688568 148.221710,355.225952 
	C182.990265,354.914124 218.059555,354.910095 253.595901,354.917847 
z"/>
<path fill="#C0CAD1" opacity="1.000000" stroke="none" 
	d="
M254.578049,292.941284 
	C253.664169,293.301849 252.276581,293.956665 250.888016,293.958771 
	C214.945679,294.013275 179.003235,294.002350 143.060837,293.982147 
	C142.248932,293.981689 141.437149,293.742249 140.329987,293.326813 
	C178.057724,293.003357 216.080795,292.967377 254.578049,292.941284 
z"/>
<path fill="#C0CAD1" opacity="1.000000" stroke="none" 
	d="
M265.552246,292.139221 
	C264.690186,292.410065 263.443237,292.642059 262.139832,292.560181 
	C263.111359,292.197632 264.139343,292.149017 265.552246,292.139221 
z"/>
<path fill="#C1C9D6" opacity="1.000000" stroke="none" 
	d="
M264.510620,406.012939 
	C263.745636,406.356873 262.515259,406.960999 261.284058,406.962555 
	C224.375427,407.009674 187.466690,406.999146 150.557999,406.978424 
	C149.913116,406.978058 149.268372,406.741150 148.327484,406.327576 
	C186.702545,406.024414 225.373672,406.008331 264.510620,406.012939 
z"/>
<path fill="#C1C9D6" opacity="1.000000" stroke="none" 
	d="
M142.375214,408.002014 
	C141.694901,407.906677 141.441391,407.730957 141.134430,407.270081 
	C142.433578,406.719208 143.840744,406.374786 145.614532,406.046417 
	C144.903244,406.708435 143.825333,407.354401 142.375214,408.002014 
z"/>
<path fill="#C8D1DE" opacity="1.000000" stroke="none" 
	d="
M105.703735,342.251221 
	C105.636436,341.042175 105.636436,339.791565 105.636436,337.340118 
	C107.100082,338.908234 107.946449,339.815002 108.792831,340.721802 
	C108.008911,341.197113 107.224983,341.672424 106.057831,342.242188 
	C105.674606,342.336639 105.771027,342.209717 105.703735,342.251221 
z"/>
<path fill="#959DA9" opacity="1.000000" stroke="none" 
	d="
M386.901855,381.201813 
	C382.302155,389.900330 374.109924,392.553436 366.837982,388.066254 
	C360.751801,384.310699 358.874237,375.720673 362.822601,369.695404 
	C366.237518,364.484192 373.304382,362.204895 379.076263,364.453064 
	C385.415192,366.922119 388.094940,372.445068 386.901855,381.201813 
z"/>
</svg>